<?xml version="1.0" encoding="utf-8"?>
<!-- Generator: Adobe Illustrator 18.1.1, SVG Export Plug-In . SVG Version: 6.00 Build 0)  -->
<svg version="1.1" id="Layer_1" xmlns="http://www.w3.org/2000/svg" xmlns:xlink="http://www.w3.org/1999/xlink" x="0px" y="0px"
	 viewBox="0 0 32.3 32.3" enable-background="new 0 0 32.3 32.3" xml:space="preserve">
<circle fill="#FFFFFF" stroke="#FF4666" stroke-width="2" stroke-miterlimit="10" cx="16.2" cy="16.2" r="15"/>
<g>
	<path fill="#FF4666" d="M14.2,11.8c-1,0.2-1.7,0.9-2.1,2.2c-0.2,0.6-0.3,1.2-0.3,1.9c0,0.1,0,0.1,0,0.2c0,0.1,0,0.2,0,0.3h2.4v4.8
		H9.5v-4.4c0-2.2,0.4-3.8,1.3-5s2-1.8,3.4-2V11.8z M21.6,11.8c-0.8,0.1-1.4,0.6-1.8,1.4c-0.4,0.8-0.6,1.7-0.6,2.7c0,0.1,0,0.2,0,0.3
		s0,0.2,0.1,0.3h2.4v4.8h-4.7v-4.4c0-1.7,0.4-3.3,1.1-4.7c0.7-1.4,1.9-2.2,3.6-2.4V11.8z"/>
</g>
</svg>
