<?xml version="1.0" encoding="utf-8"?>
<!-- Generator: Adobe Illustrator 18.1.1, SVG Export Plug-In . SVG Version: 6.00 Build 0)  -->
<svg version="1.1" id="Layer_1" xmlns="http://www.w3.org/2000/svg" xmlns:xlink="http://www.w3.org/1999/xlink" x="0px" y="0px"
	 viewBox="0 0 249.5 39" enable-background="new 0 0 249.5 39" xml:space="preserve">
<g>
	<path fill="#FFFFFF" d="M28.1,6.1c0.3,0,0.5,0,0.6,0c0.1,0,0.2,0.1,0.2,0.2c0,0.1,0,0.3,0,0.3c-0.5,0.3-1,0.7-1.6,0.9
		c-1,0.3-2.1,0.5-3,1.1c-0.2,0.1-0.5,0.1-0.8,0.2C23,9,22.5,9.2,22.1,9.7c-0.2,0.2-0.5,0.4-0.8,0.5c-1.2,0.4-2.2,1.2-3.3,1.8
		c-0.1,0.1-0.3,0.2-0.4,0.3c-0.2,0.7-0.8,0.9-1.3,1.2c-0.2,0.2-0.4,0.3-0.3,0.6l0,0.2c0.1,2,0,3.9-0.4,5.8c-0.3,1.1-0.4,2.3-0.5,3.4
		c-0.3,1.6-0.5,3.3-0.9,5c-0.2,0.7-0.3,1.4-0.3,2c0,0.3,0,0.5-0.2,0.8c-0.4,0.5-0.5,1.2-0.5,1.8c0,0.5-0.1,1-0.2,1.5
		c-0.1,0.4-0.4,0.6-0.6,0.6c-0.3,0-0.7,0-0.9-0.4c-0.1-0.3-0.3-0.5-0.4-0.8c-0.5-1.2-0.6-2.4-0.6-3.7c-0.1-1.7,0.1-3.3,0.3-5
		c0.1-1.3,0.2-2.6,0.3-3.9c0-0.7,0.1-1.4,0.3-2.1c0.1-0.6,0.1-1.2,0.3-1.8c0-0.1,0-0.2-0.1-0.3c-0.1-0.1-0.3,0-0.4,0.1
		c-0.6,0.4-1.3,0.7-1.9,1.2c-0.5,0.4-1.1,0.6-1.7,0.9c-0.9,0.4-1.7,0.3-2.5-0.2c-0.9-0.5-1.6-1.2-1.9-2.2c-0.1-0.2,0-0.5,0.2-0.6
		c0,0,0.1-0.1,0.1-0.1c1.7-0.5,3.2-1.5,4.7-2.3l2.8-1.4c0.1,0,0.2-0.1,0.2-0.1c1.2-0.9,2.4-1.5,3.7-2.1c1.5-0.8,3.1-1.5,4.7-2.1
		c1.4-0.5,2.8-1,4.2-1.4C25.2,6.4,26.7,6.2,28.1,6.1z"/>
	<path fill="#FFFFFF" d="M40,31.5c-1.1,0.2-1.7-0.4-2.1-1.3c-0.1-0.1-0.1-0.3-0.2-0.5c-0.4-1.7-1.1-3.4-1.2-5.2c0-0.2,0-0.3-0.1-0.5
		c-0.1-0.2-0.3-0.3-0.5-0.2c-0.5,0.1-0.8,0.4-1.1,0.8c-0.7,0.9-1.3,1.9-2,2.7c-0.8,1.1-1.7,2.1-2.6,3.2c-0.2,0.2-0.3,0.4-0.4,0.6
		c-0.3,0.5-0.7,0.9-1.4,0.9c-0.4,0.3-0.9,0.3-1.4,0.4c-0.6,0.1-1.1-0.1-1.3-0.6c-0.1-0.2-0.1-0.3-0.3-0.4c-0.2,0-0.4-0.1-0.4-0.3
		c-0.1-0.5-0.5-0.7-0.7-1.1c-0.7-1.7-1-3.4-1-5.3c0-2,0.2-3.9,0.5-5.8c0.4-2.4,0.9-4.7,1.8-6.9c0.4-1,0.7-2,1-3.1
		c1,0.2,1.9,0.5,2.8,0.8c1.2,0.5,1.9,1.9,1.3,3.1c-0.6,1.5-1,3.1-1.5,4.7c-0.6,1.9-0.9,3.9-1.3,5.9c-0.3,1.5-0.3,3-0.3,4.4
		c0,0.2,0,0.4,0.1,0.5c0,0.3,0.2,0.4,0.4,0.2c0.5-0.3,0.9-0.5,1.4-0.9c0.2-0.2,0.5-0.3,0.6-0.5c1.4-1.8,2.8-3.6,3.7-5.7
		c0.1-0.3,0.3-0.5,0.3-0.8c0.4-1.5,1.1-3,1.3-4.6c0.1-0.5,0.2-0.9,0.4-1.4c0.1-0.3,0.2-0.6,0.2-1c-0.1-0.5,0.2-0.9,0.6-1.3
		c0.3-0.3,0.7-0.3,1-0.2c0.3,0.1,0.5-0.1,0.7,0.1c0.3,0.5,0.7,0.8,0.7,1.4c-0.1,0.8-0.1,1.7-0.2,2.5c0,0.5,0,1,0.1,1.5
		c0.8,2.2,0.8,4.4,0.9,6.7c0,0.7,0,1.4,0.1,2.1c0.1,1.4,0.1,2.8-0.2,4.1C39.9,31,40.1,31.2,40,31.5z M28.7,32L28.7,32L28.7,32
		L28.7,32z"/>
	<path fill="#FFFFFF" d="M56,18.9c0.3,1.3-0.2,2.7-0.3,4.1c-0.1,1.1-0.6,2.1-1.2,3.1c-0.5,0.8-1.1,1.6-1.6,2.3
		c-0.3,0.5-0.7,0.7-1.1,1c-0.8,0.8-1.7,1.6-2.5,2.4c-0.9,0.9-2,1.2-3.1,1.5c-1,0.3-1.9,0-2.7-0.5c-0.1-0.1-0.2-0.1-0.3-0.2
		c-0.8-0.9-1.5-1.8-1.9-3.1c-0.4-1.3-0.6-2.6-0.6-3.9c-0.1-1.9,0.3-3.7,0.8-5.5c0.9-2.7,2-5.2,3.3-7.6c0.5-1,1.1-2.1,1.9-2.9
		C47,9.2,47.4,8.9,48,8.9c0.2,0,0.5-0.1,0.7-0.2c0.3-0.2,0.6-0.1,0.9,0c0.4,0.1,0.6,0.2,1,0.1c0.8-0.2,1.7,0.8,1.7,1.7
		c0,0.5,0.2,0.8,0.6,0.9c0.7,0.2,1.2,0.6,1.5,1.3c0.1,0.2,0.2,0.3,0.3,0.4c1.4,1.5,1.6,3.4,1.5,5.4V18.9z M48.5,20.7
		c-0.7-0.3-1.1-0.6-1.5-1c-0.3-0.3-0.5-0.2-0.7,0.2c-0.3,0.8-0.5,1.6-0.9,2.4c-0.6,1.5-0.9,3.1-0.9,4.8c0,0.6,0.1,1.2,0.2,1.8
		c0.1,0.4,0.3,0.6,0.5,0.9c0.3,0.4,0.5,0.4,0.9,0.2c0.3-0.2,0.7-0.4,1-0.7c1.9-1.7,3.6-3.7,4.9-6.1c1-1.8,1.5-3.8,1.6-5.9
		c0.1-0.8,0-1.6-0.2-2.4c-0.1-0.4-0.2-0.7-0.4-1.1c-0.2-0.3-0.5-0.4-0.7-0.2c-0.6,0.5-1.2,1-1.6,1.8c-0.5,1.1-1.1,2.2-1.6,3.3
		C48.9,19.3,48.3,19.8,48.5,20.7z"/>
	<path fill="#FFFFFF" d="M70.3,23.6c0.4-0.2,0.7-0.5,0.9-0.9c1.6-1.7,3-3.6,4.3-5.5c0.5-0.7,1.1-1.4,1.6-2.2
		c0.4-0.5,0.9-0.8,1.5-0.7c0.5,0.1,1,0.1,1.5,0.2c0.3,0.1,0.4,0.2,0.5,0.5c0,0.5,0.3,0.9,0.5,1.4c0.4,0.5,0.4,1.2,0.1,1.7
		c-0.2,0.6-0.5,1.2-0.6,1.9c-0.2,0.8-0.4,1.5-0.4,2.3c0,1.2-0.3,2.3-0.4,3.5c-0.1,1.7-0.3,3.4-0.4,5.1c0,0.3,0.1,0.4,0.4,0.4
		c0.1,0,0.2,0,0.2,0c0.2,0,0.5-0.2,0.7,0c0.1,0.1,0,0.6-0.2,0.8c-0.5,0.5-1,1-1.4,1.5c-0.2,0.2-0.5,0.3-0.7,0.1
		c-0.2-0.1-0.3-0.2-0.5-0.1c-0.3,0-0.6-0.1-0.8-0.3c-0.3-0.3-0.6-0.6-1-0.8c-0.2-0.1-0.4-0.3-0.4-0.5c-0.2-0.9-0.7-1.8-0.6-2.8
		c0.1-1.4,0-2.8,0.2-4.2c0-0.3,0-0.5,0-0.8c0-0.1-0.2-0.2-0.4-0.1c-0.7,0.6-1.4,1.1-2.1,1.8c-0.5,0.5-1,1-1.6,1.4
		c-0.5,0.4-0.9,0.7-1.2,1.2c-0.7,0.8-1.5,0.8-2.2,0.2c-0.6-0.5-0.8-1.2-0.9-1.9c0-0.1,0-0.4,0.1-0.4c0.4-0.3,0.4-0.6,0.1-1
		c-0.2-0.2-0.1-0.4-0.1-0.5l0.7-4.5c0.1-0.7,0.3-1.4,0.4-2.2c0-0.2,0-0.4,0-0.6c0,0-0.1-0.1-0.2-0.1c0,0-0.1,0-0.2,0.1
		c-0.1,0.2-0.2,0.3-0.3,0.5c-0.4,0.8-0.7,1.7-1,2.5c-0.1,0.4-0.2,0.7-0.5,1.1c-0.8,1.2-1.5,2.6-2.4,3.7c-0.6,0.7-0.9,1.4-1,2.3
		c-0.1,1.3-0.3,2.6-0.5,3.9c0,0.3-0.1,0.6-0.1,0.9c0,0.4-0.1,0.7-0.5,0.8c-0.1,0-0.2,0.1-0.3,0.2c-0.5,0.6-1,0.4-1.6,0.1
		c-0.4-0.2-0.7-0.5-1-0.7c-0.1-0.2-0.3-0.3-0.3-0.5c-0.2-0.8-0.4-1.5-0.2-2.4c0.1-0.3,0.1-0.5,0.1-0.8c-0.1-1.7,0.2-3.4,0.4-5.1
		c0.3-1.8,0.5-3.6,0.8-5.5c0.2-1.7,0.5-3.5,0.8-5.2c0.2-1.2,0.4-2.3,0.5-3.5c0.1-0.4,0-0.7-0.1-1.1c-0.1-0.6,0-0.6,0.5-0.9
		c0.7-0.4,1.4-0.4,2.1-0.2c1.1,0.3,1.7,1,1.8,2.1C65,10.3,65,11,65,11.7c-0.1,0.9-0.1,1.8-0.3,2.7c-0.2,0.8-0.2,1.6-0.3,2.4
		C64.3,17.5,64,18.2,64,19c0,0.1,0,0.2,0,0.3c0,0,0.1,0.1,0.2,0.1c0.1,0,0.1-0.1,0.2-0.1c0.4-0.6,0.9-1.3,1.3-1.9
		c0.5-0.7,0.8-1.6,1.4-2.2c0.1,0,0.1-0.1,0.1-0.2c0.3-1.2,1.1-2,1.6-3c0.3-0.5,0.8-0.6,1.3-0.8c0.4-0.1,0.7,0.3,1.1,0.2
		c0.1,0,0.2,0.1,0.2,0.2c0.2,0.5,0.4,1,0.3,1.5c-0.2,1.1-0.4,2.2-0.4,3.3c-0.1,1.2-0.3,2.4-0.5,3.6c-0.2,1.1-0.4,2.2-0.6,3.3
		C70.2,23.3,70.3,23.4,70.3,23.6z"/>
	<path fill="#FFFFFF" d="M98.9,12.5c0,2.3-0.2,4.1-0.4,5.9c0,0.3-0.1,0.5-0.1,0.8c-0.1,2.4-0.5,4.7-0.8,7.1
		c-0.1,0.6-0.2,1.1-0.2,1.7c0,0.7-0.1,1.4-0.3,2.2c-0.1,0.3-0.1,0.6-0.2,0.9c0,0.4,0,0.8-0.4,1.2c-0.3,0.3-0.2,0.7-0.2,1.1
		c0.1,1-0.4,1.7-1,2.3c-0.1,0.1-0.2,0.2-0.2,0.3c-0.2,0.3-0.4,0.2-0.6,0c-0.8-0.6-1.3-1.4-1.4-2.4c-0.1-0.9-0.3-1.8-0.1-2.7
		c0.1-0.6,0.1-1.2,0.1-1.8c0-1.4,0.2-2.8,0.3-4.2c0-0.2-0.2-0.4-0.4-0.3c-1,0.3-2,0.1-3-0.1c-0.3-0.1-0.6-0.1-0.9-0.2
		c-0.5-0.1-0.6-0.1-0.8,0.4c-0.4,1-0.7,1.9-1.1,2.9c-0.6,1.6-1.2,3.2-1.9,4.8c-0.1,0.3-0.3,0.5-0.4,0.8c-0.4,0.8-1.1,1.1-1.9,1.2
		c-0.2,0-0.4,0-0.5-0.2c-0.5-0.5-0.9-1.1-1.1-1.8c0-0.1,0-0.2,0-0.2c0.7-1,0.8-2.2,1.2-3.2c0.6-1.5,1.1-3,1.7-4.5
		c0.2-0.6,0.4-1.3,0.8-1.9c0.3-0.3-0.4-0.8,0.2-1.1c0.4-0.2,0.5-0.6,0.7-1c0.5-1,0.9-2,1.3-3l2.1-4.8c0.7-1.8,1.7-3.4,2.3-5.2
		c0.1-0.4,0.3-0.7,0.3-1.2c0-0.5,0.2-0.8,0.7-0.9c0.5-0.1,1-0.2,1.3-0.6c0.1,0,0.2-0.1,0.2-0.1c0.9,0.2,1.8,0.3,2.5,1.2
		c0.9,1.2,1.4,2.4,1.5,3.9C98.7,10.5,98.9,11.8,98.9,12.5z M90.1,20.6c0.7,0.3,1.5,0.5,2.2,0.9c0.3,0.1,0.6,0.1,0.9,0
		c0.4,0,0.6-0.2,0.6-0.5c0-0.4,0.1-0.7,0.1-1c0-2.1,0.1-4.2,0.2-6.3c0.1-0.8,0-1.7,0-2.5c0-0.1-0.1-0.1-0.1-0.2
		c-0.1-0.1-0.2,0-0.3,0.1c-0.5,1-0.9,2-1.4,3c-0.2,0.5-0.5,1-0.5,1.5c-0.1,0.6-0.3,1.2-0.5,1.7l-1,2.3
		C90.2,19.9,90.1,20.2,90.1,20.6z"/>
	<path fill="#FFFFFF" d="M114,8.1c-0.3,0.9-0.6,1.7-1.2,2.4c-0.2,0.2-0.3,0.5-0.4,0.7c-0.3,0.6-0.7,0.8-1.4,0.5c0,0-0.1,0-0.1,0
		c-0.6-0.3-0.8-0.8-0.6-1.4c0.3-0.6,0.4-1.3,0.5-1.9c0.1-0.3,0.1-0.7,0.2-1c0.1-0.7-0.3-1.2-0.9-1.2c-0.8,0-1.4,0.3-1.9,1
		c-0.6,0.9-0.7,2-1.1,2.9c0,0.1,0,0.2,0,0.4c0.1,1.3,0.2,2.6,0.9,3.7c0.5,0.7,0.6,1.5,1,2.2c0.3,0.7,0.9,1.3,1.2,2
		c0.3,0.7,0.5,1.4,0.6,2.2c0.1,0.5,0.2,1,0.5,1.4c0.7,1.4,1,2.8,0.9,4.3c0,0.6,0,1.3-0.1,1.9c-0.1,1.8-0.8,3.3-1.6,4.9
		c0,0-0.1,0.1-0.1,0.1c-0.4,1.2-1.4,1.7-2.4,2.3c-0.6,0.3-1.2,0.6-1.8,0.9c-0.4,0.2-0.8,0.5-1.3,0.5c-0.5,0-0.9-0.2-1.4-0.4
		c-0.1,0-0.3-0.2-0.4-0.2c-0.8,0.1-1.3-0.4-1.7-0.9h0c-0.2-0.1-0.3-0.2-0.5-0.3c-0.1-0.1-0.1-0.2,0.1-0.3c0.1,0,0.3,0,0.3-0.1
		c0-0.1-0.1-0.2-0.2-0.2c-0.4-0.1-0.5-0.2-0.6-0.6c-0.1-0.4-0.3-0.7-0.5-1c-0.5-0.7-0.6-1.5-0.5-2.3c0.1-0.7,0.3-1.4,0.8-2.1
		c0.7-0.8,1.4-1.6,1.6-2.7c0.4-0.4,0.5-1,0.9-1.4c0.5-0.5,0.9-0.7,1.5-0.5h0c-0.3,0.3-0.4,0.6-0.5,1c-0.5,1-0.9,2.2-1.7,3.1
		c-0.5,0.6-0.7,1.4-1,2.2c-0.1,0.3-0.2,0.5,0,0.8c0.3,0.3,0.3,0.8,0.4,1.2c0.2,0.6,0.3,1.2,0.9,1.5c0.5,0.4,0.9,0.4,1.3-0.1
		c0.4-0.5,0.8-0.9,1.3-1.4c0.4-0.4,0.7-0.7,0.9-1.2c0.6-1.4,1.3-2.9,1.6-4.4c0.4-1.8,0.3-3.6-0.5-5.4c-0.1-0.1-0.2-0.3-0.3-0.3
		c-0.1,0-0.2,0.1-0.3,0.2c-0.2,0.3-0.3,0.5-0.5,0.8c-0.1-0.4-0.3-1.7-0.3-1.9c0-0.3,0.3-0.5,0.4-0.7c0.2-0.4,0.3-0.7,0.1-1.1
		c-0.1-0.1-0.1-0.3-0.2-0.4c-0.6-1.3-0.9-2.6-1.3-3.9c-0.4-1.4-0.4-2.8-0.1-4.2c0.1-0.5,0.2-1,0.4-1.5c0.3-1.2,0.9-2.3,2-3
		c0.2-0.1,0.3-0.3,0.5-0.3c0.9-0.3,1.8-0.5,2.7-0.3c0.6,0.2,1.3,0.2,1.9,0.3c0.7,0.2,1.2,0.4,1.6,1c0.1,0.2,0.3,0.3,0.4,0.4
		C114.1,6.9,114.2,7.4,114,8.1z M101.8,35.2h-0.2c-0.1,0.1-0.2,0.1-0.3,0.2c0.1,0,0.2,0,0.3,0C101.7,35.4,101.8,35.3,101.8,35.2z"/>
	<path fill="#FFFFFF" d="M152.2,32.8c-0.1,0.2-0.2,0.2-0.4,0.1l-1-0.6c-0.4-0.3-0.8-0.4-1.3-0.4c-0.5,0-1-0.1-1.4-0.3
		c-0.7-0.3-1.4-0.5-2.1-0.3c-0.5,0.1-1,0-1.4-0.2c-0.3-0.1-0.6-0.1-0.9,0v0c-0.2,0.1-0.4,0.1-0.6,0c-0.8-0.4-1.6-0.5-2.4-0.6
		c-0.2,0-0.4-0.1-0.5-0.1c-2.8-1-5.5-2.1-8-3.7c-0.4-0.3-0.5-0.2-0.7,0.1c-0.3,0.5-0.5,1-0.7,1.6c-0.4,1.1-1.1,1.9-1.8,2.7
		c-0.5,0.5-1.2,0.9-1.8,1.2c-0.4,0.2-0.7,0.1-1.1,0c-0.3-0.1-0.5-0.4-0.5-0.7c0-0.7,0.1-1.3,0.5-1.9c0.8-1.4,1.3-3,1.9-4.6
		c0.3-0.7,0.5-1.4,0.7-2.2c0.1-0.3,0.1-0.6,0-1c-0.7-1.6-0.2-3.1,0.7-4.4c0.3-0.4,0.6-0.8,1-1.2c0.4-0.4,0.6-0.8,0.7-1.4
		c0.6-2.7,1.3-5.4,1.8-8.1c0.3-1.1,0.6-2.1,1.2-3.1c0.3-0.5,0.8-0.9,1-1.5c0.4,0.1,0.7,0.4,0.9,0.8c0.1,0.2,0.2,0.3,0.3,0.4
		c1,0.8,0.9,1.9,0.8,2.9c0,0.4-0.1,0.8-0.2,1.2c-0.5,2-0.9,4-1.4,6l0,0.3c0,0.2,0.2,0.4,0.4,0.3c1-0.4,2.1-0.5,3.1-0.9
		c1.9-0.8,3.9-1.3,5.9-1.7c0.3-0.1,0.5-0.1,0.8,0.1c0.4,0.3,0.8,0.5,0.6,1.1c0.3,0.4,0,0.5-0.3,0.6c-0.1,0-0.2,0.1-0.3,0.1
		c-0.9,0-1.8,0.3-2.7,0.5c-1.5,0.3-2.8,0.9-4.2,1.5c-0.3,0.1-0.5,0.2-0.8,0.3c-0.5,0.2-1,0.4-1.4,0.8c-0.4,0.3-0.8,0.5-1.2,0.8
		c-0.6,0.4-1.1,1-1.2,1.8c-0.2,0.9-0.4,1.8-0.7,2.6c-0.2,0.5-0.2,0.6,0.3,1c0.4,0.3,0.8,0.5,1.2,0.7c2,1,4.1,1.7,6.1,2.5
		s4.2,1.6,6.2,2.6c1.4,0.7,2.6,1.4,3.8,2.3c0.5,0.4,1,0.9,1.5,1.4C152.2,32.5,152.3,32.7,152.2,32.8z"/>
	<path fill="#FFFFFF" d="M161.8,12.5c0,2.3-0.2,4.1-0.4,5.9c0,0.3-0.1,0.5-0.1,0.8c-0.1,2.4-0.5,4.7-0.8,7.1
		c-0.1,0.6-0.2,1.1-0.2,1.7c0,0.7-0.1,1.4-0.3,2.2c-0.1,0.3-0.1,0.6-0.2,0.9c0,0.4,0,0.8-0.4,1.2c-0.3,0.3-0.2,0.7-0.2,1.1
		c0.1,1-0.4,1.7-1,2.3c-0.1,0.1-0.2,0.2-0.2,0.3c-0.2,0.3-0.4,0.2-0.6,0c-0.8-0.6-1.3-1.4-1.4-2.4c-0.1-0.9-0.3-1.8-0.1-2.7
		c0.1-0.6,0.1-1.2,0.1-1.8c0-1.4,0.2-2.8,0.3-4.2c0-0.2-0.2-0.4-0.4-0.3c-1,0.3-2,0.1-3-0.1c-0.3-0.1-0.6-0.1-0.9-0.2
		c-0.5-0.1-0.6-0.1-0.8,0.4c-0.4,1-0.7,1.9-1.1,2.9c-0.6,1.6-1.2,3.2-1.9,4.8c-0.1,0.3-0.3,0.5-0.4,0.8c-0.4,0.8-1.1,1.1-1.9,1.2
		c-0.2,0-0.4,0-0.5-0.2c-0.5-0.5-0.9-1.1-1.1-1.8c0-0.1,0-0.2,0-0.2c0.7-1,0.8-2.2,1.2-3.2c0.6-1.5,1.1-3,1.7-4.5
		c0.2-0.6,0.4-1.3,0.8-1.9c0.3-0.3-0.4-0.8,0.2-1.1c0.4-0.2,0.5-0.6,0.7-1c0.5-1,0.9-2,1.3-3l2.1-4.8c0.7-1.8,1.7-3.4,2.3-5.2
		c0.1-0.4,0.3-0.7,0.3-1.2c0-0.5,0.2-0.8,0.7-0.9c0.5-0.1,1-0.2,1.3-0.6c0.1,0,0.2-0.1,0.2-0.1c0.9,0.2,1.8,0.3,2.5,1.2
		c0.9,1.2,1.4,2.4,1.5,3.9C161.7,10.5,161.9,11.8,161.8,12.5z M153,20.6c0.7,0.3,1.5,0.5,2.2,0.9c0.3,0.1,0.6,0.1,0.9,0
		c0.4,0,0.6-0.2,0.6-0.5c0-0.4,0.1-0.7,0.1-1c0-2.1,0.1-4.2,0.2-6.3c0.1-0.8,0-1.7,0-2.5c0-0.1-0.1-0.1-0.1-0.2
		c-0.1-0.1-0.2,0-0.3,0.1c-0.5,1-0.9,2-1.4,3c-0.2,0.5-0.5,1-0.5,1.5c-0.1,0.6-0.3,1.2-0.5,1.7l-1,2.3C153.1,19.9,153,20.2,153,20.6
		z"/>
	<path fill="#FFFFFF" d="M174.9,31.9c-0.2,0.4-0.5,0.7-0.9,0.9c-0.5,0.3-1,0.6-1.6,0.8c-0.6,0.2-1.2,0.4-1.7,0.5s-1.2,0.3-1.8,0.3
		c-1.4,0-2.7-0.4-3.7-1.5c-0.6-0.7-1-1.6-1.5-2.4c-0.2-0.4-0.3-0.8-0.2-1.2c0.3-2.4,0.7-4.8,1.1-7.1c0.4-2.4,0.8-4.8,1.2-7.2
		c0.3-1.9,0.6-3.7,1-5.5c0.1-0.6,0.2-1.3,0.2-1.9c0-0.5,0.2-0.7,0.7-0.5c0.5,0.1,1,0.2,1.4,0.4c1.3,0.3,2.6,1.7,2.6,3.3
		c0,1.1-0.3,2.1-0.4,3.1c-0.1,0.8-0.4,1.6-0.5,2.4c-0.3,1.4-0.5,2.7-0.7,4.1l-0.6,3c-0.3,2-0.7,3.9-1,5.9c-0.1,0.5-0.2,1.1-0.2,1.6
		c0,0.6,0.1,0.8,0.7,1c1.8,0.6,3.6,0.7,5.4,0.3c0.1,0,0.2,0,0.3-0.1C174.8,31.9,174.9,31.9,174.9,31.9z"/>
	<path fill="#FFFFFF" d="M187,31.9c-0.2,0.4-0.5,0.7-0.9,0.9c-0.5,0.3-1,0.6-1.6,0.8c-0.6,0.2-1.2,0.4-1.7,0.5s-1.2,0.3-1.8,0.3
		c-1.4,0-2.7-0.4-3.7-1.5c-0.6-0.7-1-1.6-1.5-2.4c-0.2-0.4-0.3-0.8-0.2-1.2c0.3-2.4,0.7-4.8,1.1-7.1c0.4-2.4,0.8-4.8,1.2-7.2
		c0.3-1.9,0.6-3.7,1-5.5c0.1-0.6,0.2-1.3,0.2-1.9c0-0.5,0.2-0.7,0.7-0.5c0.5,0.1,1,0.2,1.4,0.4c1.3,0.3,2.6,1.7,2.6,3.3
		c0,1.1-0.3,2.1-0.4,3.1c-0.1,0.8-0.4,1.6-0.5,2.4c-0.3,1.4-0.5,2.7-0.7,4.1l-0.6,3c-0.3,2-0.7,3.9-1,5.9c-0.1,0.5-0.2,1.1-0.2,1.6
		c0,0.6,0.1,0.8,0.7,1c1.8,0.6,3.6,0.7,5.4,0.3c0.1,0,0.2,0,0.3-0.1C186.9,31.9,186.9,31.9,187,31.9z"/>
	<path fill="#FFFFFF" d="M190.1,37.7c-0.6-0.9-1-1.7-1.1-2.8c0-0.2-0.1-0.3,0-0.5c0.2-1.9,0.1-3.9,0.1-5.8c0-1.8,0-3.6,0-5.4
		c0.1-2.8,0.2-5.6,0.5-8.3c0.2-1.5,0.4-3,0.5-4.5c0-0.4,0-0.7,0-1.1c0-0.9,0-1.8,0-2.7c0-0.4,0.1-0.5,0.3-0.7
		c0.1-0.1,0.2-0.1,0.3-0.2c0.9-0.2,1.9-0.6,2.8-0.1c0.9,0.5,1.4,1.3,1.5,2.5c0.1,1.7,0,3.4-0.3,5.1c-0.3,1.7-0.6,3.3-0.8,5
		c-0.3,1.9-0.5,3.9-0.8,5.8c-0.1,0.7-0.2,1.4-0.2,2.2c-0.2,1.5-0.3,3-0.6,4.4c-0.2,0.7-0.1,1.4-0.3,2c-0.1,0.2-0.1,0.6-0.2,0.7
		c-0.3,0.3-0.3,0.8-0.6,1c-0.3,0.2-0.4,0.5-0.4,0.8C190.8,36.1,190.4,36.9,190.1,37.7z"/>
	<path fill="#FFFFFF" d="M216.5,9.6c-0.4,0.2-0.6,0.5-0.6,1c0,0.5-0.2,1-0.5,1.4c-0.6,1.1-1.3,2.3-1.9,3.4c-0.6,1.2-1.1,2.4-1.7,3.7
		c-0.1,0.2-0.1,0.3-0.1,0.5c0.1,0.8-0.4,1.5-0.5,2.2c-0.3,0.9-0.7,1.7-1,2.5c-0.4,1.5-1,2.9-1.2,4.4c0,0.3-0.1,0.5-0.2,0.8
		c-0.1,0.5-0.1,0.8,0.2,1.2c0.1,0.1,0.2,0.3,0.2,0.5c0.1,0.3,0,0.6-0.2,0.9c-0.3,0.3-0.7,0.5-1.1,0.5c-0.5,0.1-0.8,0.1-1.2-0.2
		c-0.3-0.2-0.6-0.3-1-0.4c-0.6-0.2-1-0.6-1.2-1.2c-0.5-1.2-0.7-2.4-0.9-3.6c-0.3-1.8-0.6-3.5-0.9-5.3c-0.1-0.5-0.3-1-0.4-1.5
		c0-0.1-0.1-0.1-0.2-0.1c0,0-0.1,0.1-0.1,0.1c-0.2,1.3-0.5,2.6-0.6,3.9c-0.1,1.3-0.4,2.5-0.7,3.6c-0.1,0.4-0.2,0.8-0.3,1.2
		c0,0.1,0,0.3-0.1,0.5c-0.6,0.8-0.9,1.9-1.4,2.9c-0.3,0.5-0.4,1.2-0.6,1.8c-0.1,0.2-0.3,0.3-0.4,0.4c-0.1,0.1-0.2,0.1-0.3,0
		c-0.3-0.4-0.7-0.6-0.8-1.1c-0.2-0.8-0.4-1.6-0.5-2.5c-0.1-2.2-0.1-4.4,0.2-6.6c0.3-2.2,0.5-4.3,0.7-6.5l0.2-1.3
		c0.1-0.7,0.2-1.4,0.2-2.2c0.1-1.1,0.3-2.1,0.5-3.2c0.1-0.6,0.5-1,1.1-1c0.6,0,1.3-0.2,1.9,0c0.6,0.2,1,0.5,1.3,1.1
		c0.2,0.4,0.4,0.8,0.8,1.1c0.6,0.4,0.9,1.1,1.1,1.8c0.8,1.8,1.5,3.6,2.2,5.4c0.3,0.8,0.5,1.7,0.5,2.6c0,0.4,0,0.8,0.4,1.2
		c0.6-1.1,1.4-2,2.1-3c0.1-0.2,0.2-0.4,0.3-0.6c1-2.7,2.5-5,3.8-7.5c0-0.1,0.1-0.2,0.2-0.3c0.7-0.6,1.2-1.4,1.6-2.3
		C215.7,9.4,216.1,9.4,216.5,9.6z"/>
	<path fill="#FFFFFF" d="M212.9,28c0-1.1,0.2-2.1,0.4-3.1l0.3-1.7c0.1-0.3,0.1-0.5,0.3-0.8c0.3-0.6,0.5-1.2,0.4-1.9
		c0-0.2,0.1-0.5,0.1-0.7c0.4-1.8,1-3.7,1.5-5.5c0.2-0.5,0.3-1,0.5-1.6c0.2-0.7,0.5-1.4,0.8-2.1c0.1-0.3,0.3-0.4,0.5-0.4
		c0.2,0,0.3-0.1,0.5-0.1c0.7-0.2,1.3-0.4,1.9,0.2c0.2,0.2,0.4,0.1,0.6,0c0.1-0.1,0.3-0.1,0.4-0.2c2.2-1.1,4.4-1.8,6.7-2.8
		c0.8-0.4,1.7-0.6,2.6-0.9c0.5-0.2,1-0.3,1.5-0.5C232,6,232.2,6,232.5,6c0.2,0,0.5,0.3,0.4,0.5c-0.3,0.3-0.2,0.7-0.4,1.1
		c-0.2,0.3-0.5,0.5-0.6,0.9c-0.1,0.3-0.4,0.4-0.6,0.5c-0.4,0.1-0.7,0.4-0.9,0.6c-0.5,0.6-1.1,0.9-1.7,1.1c-0.6,0.3-1.2,0.6-1.7,0.9
		c-1.7,0.8-3.3,1.7-5,2.4c-0.2,0.1-0.4,0.2-0.6,0.2c-0.8,0-1,0.5-1.2,1.2c-0.3,1.1-0.7,2.1-1,3.1l-0.5,1.9c0,0.2,0.1,0.3,0.3,0.3
		l2.5-0.7c0.6-0.2,1.3-0.2,2-0.2c0.3,0,0.4,0.2,0.3,0.4c0,0.2-0.1,0.4,0,0.6c0,0.1,0,0.2,0,0.2c-0.4,0.3-0.5,0.9-1.1,1.2
		c-0.3,0.1-0.6,0.3-0.7,0.7c-0.1,0.2-0.3,0.3-0.5,0.4c-0.6,0.4-1.3,0.7-2.1,0.9c-0.4,0.1-0.9,0.1-1.3,0c-0.5-0.2-0.5-0.1-0.6,0.5
		c-0.4,1.3-0.5,2.5-0.8,3.8c-0.1,0.2,0,0.4,0,0.6c0,0.2,0.2,0.3,0.4,0.2c0.3-0.2,0.5-0.3,0.8-0.5c1.8-1.3,3.7-2.4,5.7-3.3
		c0.5-0.2,1.1-0.5,1.7-0.5c0.4,0,0.5,0.1,0.6,0.5c0.2,0.5-0.1,1-0.1,1.5c0,0.4-0.4,0.6-0.6,0.9c-0.4,0.3-0.7,0.6-0.9,1.1
		c-0.1,0.1-0.2,0.2-0.3,0.3c-1.5,1-3,2-4.4,3c-0.6,0.5-1.4,0.6-2.1,0.9c-0.2,0.1-0.4,0-0.5,0c-1-0.1-1.8-0.5-2.5-1.2
		c-0.9-0.9-1.4-2-1.4-3.3V28z"/>
	<path fill="#FFFFFF" d="M247.7,9.6c-0.4,0.2-0.6,0.5-0.6,1c0,0.5-0.2,1-0.5,1.4c-0.6,1.1-1.3,2.3-1.9,3.4c-0.6,1.2-1.1,2.4-1.7,3.7
		c-0.1,0.2-0.1,0.3-0.1,0.5c0.1,0.8-0.4,1.5-0.5,2.2c-0.3,0.9-0.7,1.7-1,2.5c-0.4,1.5-1,2.9-1.2,4.4c0,0.3-0.1,0.5-0.2,0.8
		c-0.1,0.5-0.1,0.8,0.2,1.2c0.1,0.1,0.2,0.3,0.2,0.5c0.1,0.3,0,0.6-0.2,0.9c-0.3,0.3-0.7,0.5-1.1,0.5c-0.5,0.1-0.8,0.1-1.2-0.2
		c-0.3-0.2-0.6-0.3-1-0.4c-0.6-0.2-1-0.6-1.2-1.2c-0.5-1.2-0.7-2.4-0.9-3.6c-0.3-1.8-0.6-3.5-0.9-5.3c-0.1-0.5-0.3-1-0.4-1.5
		c0-0.1-0.1-0.1-0.2-0.1c0,0-0.1,0.1-0.1,0.1c-0.2,1.3-0.5,2.6-0.6,3.9c-0.1,1.3-0.4,2.5-0.7,3.6c-0.1,0.4-0.2,0.8-0.3,1.2
		c0,0.1,0,0.3-0.1,0.5c-0.6,0.8-0.9,1.9-1.4,2.9c-0.3,0.5-0.4,1.2-0.6,1.8c-0.1,0.2-0.3,0.3-0.4,0.4c-0.1,0.1-0.2,0.1-0.3,0
		c-0.3-0.4-0.7-0.6-0.8-1.1c-0.2-0.8-0.4-1.6-0.5-2.5c-0.1-2.2-0.1-4.4,0.2-6.6c0.3-2.2,0.5-4.3,0.7-6.5l0.2-1.3
		c0.1-0.7,0.2-1.4,0.2-2.2c0.1-1.1,0.3-2.1,0.5-3.2c0.1-0.6,0.5-1,1.1-1c0.6,0,1.3-0.2,1.9,0c0.6,0.2,1,0.5,1.3,1.1
		c0.2,0.4,0.4,0.8,0.8,1.1c0.6,0.4,0.9,1.1,1.1,1.8c0.8,1.8,1.5,3.6,2.2,5.4c0.3,0.8,0.5,1.7,0.5,2.6c0,0.4,0,0.8,0.4,1.2
		c0.6-1.1,1.4-2,2.1-3c0.1-0.2,0.2-0.4,0.3-0.6c1-2.7,2.5-5,3.8-7.5c0-0.1,0.1-0.2,0.2-0.3c0.7-0.6,1.2-1.4,1.6-2.3
		C246.9,9.4,247.3,9.4,247.7,9.6z"/>
</g>
</svg>
