<?xml version="1.0" encoding="utf-8"?>
<!-- Generator: Adobe Illustrator 18.1.1, SVG Export Plug-In . SVG Version: 6.00 Build 0)  -->
<svg version="1.1" id="Layer_1" xmlns="http://www.w3.org/2000/svg" xmlns:xlink="http://www.w3.org/1999/xlink" x="0px" y="0px"
	 viewBox="247.5 464.5 59.2 26.8" enable-background="new 247.5 464.5 59.2 26.8" xml:space="preserve">
<g>
	<path fill="#FF4565" d="M251.3,478.4c-0.1,0-0.2,0.1-0.2,0.2l-0.6,5.2l0.6,5.1c0,0.1,0.1,0.2,0.2,0.2s0.2-0.1,0.2-0.2l0.6-5.1
		l-0.6-5.1C251.6,478.6,251.5,478.4,251.3,478.4z"/>
	<path fill="#FF4565" d="M249.2,480.5c-0.1,0-0.2,0.1-0.2,0.2l-0.5,3.2l0.4,3.2c0,0.1,0.1,0.2,0.2,0.2s0.2-0.1,0.2-0.2l0.5-3.2
		l-0.5-3.3C249.4,480.6,249.3,480.5,249.2,480.5z"/>
	<path fill="#FF4565" d="M253.6,477.4c-0.1,0-0.3,0.1-0.3,0.3l-0.5,6.1l0.5,5.9c0,0.2,0.1,0.3,0.3,0.3c0.1,0,0.3-0.1,0.3-0.3
		l0.6-5.9l-0.6-6.1C253.9,477.5,253.7,477.4,253.6,477.4z"/>
	<path fill="#FF4565" d="M255.8,477.2c-0.2,0-0.3,0.1-0.3,0.3l-0.5,6.3l0.5,6.1c0,0.2,0.2,0.3,0.3,0.3c0.2,0,0.3-0.1,0.3-0.3
		l0.6-6.1l-0.6-6.3C256.2,477.4,256.1,477.2,255.8,477.2z"/>
	<path fill="#FF4565" d="M258.6,490.1L258.6,490.1L258.6,490.1z"/>
	<path fill="#FF4565" d="M258.6,478c0-0.2-0.2-0.4-0.4-0.4s-0.4,0.2-0.4,0.4l-0.5,5.9l0.5,6.2c0,0.2,0.2,0.4,0.4,0.4
		s0.4-0.2,0.4-0.4l0.5-6.2L258.6,478z"/>
	<path fill="#FF4565" d="M260.6,473.9c-0.2,0-0.4,0.2-0.4,0.4l-0.4,9.6l0.4,6.2c0,0.2,0.2,0.4,0.4,0.4s0.4-0.2,0.4-0.4l0,0l0.5-6.2
		l-0.5-9.6C261,474,260.8,473.9,260.6,473.9z"/>
	<path fill="#FF4565" d="M262.8,471.7c-0.3,0-0.5,0.2-0.5,0.5L262,484l0.4,6.1c0,0.3,0.2,0.5,0.5,0.5c0.3,0,0.5-0.2,0.5-0.5l0,0
		l0.5-6.1l-0.5-11.8C263.3,471.9,263.1,471.7,262.8,471.7z"/>
	<path fill="#FF4565" d="M265.3,470.7c-0.3,0-0.5,0.2-0.5,0.5l-0.4,12.8l0.4,6.1c0,0.3,0.2,0.5,0.5,0.5s0.5-0.2,0.5-0.5l0,0l0.4-6.1
		l-0.4-12.8C265.8,470.9,265.6,470.7,265.3,470.7z"/>
	<path fill="#FF4565" d="M268.2,470.8c0-0.3-0.3-0.6-0.6-0.6c-0.3,0-0.6,0.3-0.6,0.6l-0.4,13.2l0.5,6c0,0.3,0.3,0.6,0.6,0.6
		c0.3,0,0.6-0.3,0.6-0.6l0.4-6L268.2,470.8z"/>
	<path fill="#FF4565" d="M268.2,490L268.2,490L268.2,490z"/>
	<path fill="#FF4565" d="M270.1,470.5c-0.3,0-0.6,0.3-0.6,0.6l-0.3,12.9l0.3,6c0,0.3,0.3,0.6,0.6,0.6s0.6-0.3,0.6-0.6l0,0l0.4-6
		l-0.4-12.9C270.7,470.7,270.4,470.5,270.1,470.5z"/>
	<path fill="#FF4565" d="M272.5,470.9c-0.4,0-0.7,0.3-0.7,0.7l-0.3,12.4l0.3,5.9c0,0.4,0.3,0.7,0.7,0.7s0.7-0.3,0.7-0.7l0,0l0.3-5.9
		l-0.3-12.4C273.1,471.2,272.8,470.9,272.5,470.9z"/>
	<path fill="#FF4565" d="M275.4,468.6c-0.1-0.1-0.3-0.1-0.4-0.1s-0.3,0-0.4,0.1c-0.2,0.1-0.3,0.3-0.3,0.6v0.1L274,484l0.3,5.9l0,0
		c0,0.2,0.1,0.3,0.2,0.4c0.1,0.2,0.3,0.3,0.6,0.3c0.2,0,0.4-0.1,0.5-0.2c0.1-0.1,0.2-0.3,0.2-0.5v-0.6l0.3-5.3l-0.3-14.7
		C275.7,468.9,275.6,468.7,275.4,468.6z"/>
	<polygon fill="#FF4565" points="275.7,489.8 275.7,489.8 275.7,489.8 275.7,489.8 275.7,489.8 275.7,489.8 	"/>
	<path fill="#FF4565" d="M277.7,467.2c-0.1-0.1-0.2-0.1-0.4-0.1s-0.4,0.1-0.5,0.2c-0.2,0.1-0.3,0.4-0.3,0.6v0.1l-0.2,16l0.2,3
		l0.2,2.9c0,0.4,0.4,0.8,0.8,0.8c0.4,0,0.8-0.3,0.8-0.8l0,0l0,0l0.3-5.8l0,0l-0.3-16.1C278.1,467.6,278,467.3,277.7,467.2z"/>
	<path fill="#FF4565" d="M299.4,476.3c-1,0-1.9,0.2-2.8,0.5c-0.6-6.4-5.9-11.5-12.6-11.5c-1.6,0-3.2,0.3-4.6,0.8
		c-0.5,0.2-0.7,0.4-0.7,0.8v22.6c0,0.4,0.3,0.8,0.8,0.8h19.7c4,0,7.2-3.2,7.2-7.1C306.5,479.5,303.3,476.3,299.4,476.3z"/>
</g>
</svg>
